<svg xmlns="http://www.w3.org/2000/svg" xmlns:graphite="https://graphite.art" viewBox="0 0 1280 720" width="1280" height="720"><defs><clipPath id="artboard-12384508212440795304"><rect x="0" y="0" width="1280" height="720" /></clipPath></defs><g>
<rect fill="#ffffff" x="0" y="0" width="1280" height="720"/>
<g clip-path="url(#artboard-12384508212440795304)">
	<g>
		<path d="M0,6 C18.953096236885813,-93.65897352926157 39.75501338162029,-231.76058728480135 133,-209 C260.00000000000006,-177.99999999999997 337.0000000000001,-228.00000000000043 956,-176 C1008.4903649013324,-171.59047015368446 1025.292471513858,-126.48844488779969 1018,-104 C1001.2999282839764,-52.50049922109035 885.2806328467503,-75.90104060566732 864,-16 C836.9999999999999,60.000000000000014 1035,10.000000000000028 1035,75 C1035,145 920.6519726692426,89.0738449376432 888,151 C859.0000000000001,206.00000000000003 963.3338780889425,218.9036949341866 960,278 C957.454828443585,323.1156973140666 848.1344916850729,357.74334244119285 782,346 C550.1517172073588,304.8312586992933 595.4756937929957,72.98206933356323 360,-6 C309.992628247816,-22.773220366397542 246.63138086547946,-4.715930470691305 238,26 C227.78046095365917,62.367605100749294 266.5116498983075,72.93464662712454 285,118 C301,157.00000000000003 299,202.99999999999994 280,232 C233.11954461547074,303.5543792711237 138.4604768678064,268.80165054265615 77,235 C-0.9072895551332323,192.15303377921663 -19.671590860661876,109.43695448798545 0,6 Z" transform="matrix(1,0,0,1,120,319)" fill="#ffffff" stroke="#000000" stroke-width="2"/>
	</g>
</g></g></svg>