<svg xmlns="http://www.w3.org/2000/svg" xmlns:graphite="https://graphite.art" viewBox="0 0 1280 720" width="1280" height="720"><defs><clipPath id="artboard-8263232996127799067"><rect x="0" y="0" width="1280" height="720" /></clipPath></defs><g>
<rect fill="#ffffff" x="0" y="0" width="1280" height="720"/>
<g clip-path="url(#artboard-8263232996127799067)">
	<g>
		<path d="" transform="matrix(1,0,0,1,182,285)" fill="#ffffff" stroke="#000000" stroke-width="2"/>
	</g>
	<g>
		<path d="M-94,89 C-99.03986324354372,-19.45530138324834 -81,-128 70,-136 C221,-144 378,-155 378,-155 C378,-155 891.6395046524727,-174.15119126940976 947,-122 C1085,8 575,8 481,0 C387,-8 301,12 301,12 C301,12 231,31 280,89 C329,147 614,145 615,145 C616,145 931,131 931,131 C931,131 1061,103 1039,238 C1017,373 716,396 716,396 C716,396 590.8091865962683,420 509.90459329813416,265 C429,110 89,370.00000000000006 33,354 C-57.18024476858943,328.2342157804029 -87.71923170344202,224.1589488850061 -94,89 Z" transform="matrix(1,0,0,1,168,271)" fill="#ffffff" stroke="#000000" stroke-width="2"/>
	</g>
</g></g></svg>